<?xml version="1.0" standalone="no"?>
<!DOCTYPE svg PUBLIC "-//W3C//DTD SVG 20010904//EN"
 "http://www.w3.org/TR/2001/REC-SVG-20010904/DTD/svg10.dtd">
<svg version="1.0" xmlns="http://www.w3.org/2000/svg"
 width="170.000000pt" height="55.000000pt" viewBox="0 0 170.000000 55.000000"
 preserveAspectRatio="xMidYMid meet">

<g transform="translate(0.000000,55.000000) scale(0.100000,-0.100000)"
fill="#000000" stroke="none">
<path d="M152 514 c-94 -47 -141 -126 -142 -240 0 -101 39 -176 120 -227 24
-16 25 -15 27 11 1 20 -4 30 -20 37 -12 6 -35 30 -52 53 -27 40 -30 51 -30
126 0 73 3 87 28 124 44 67 97 96 181 100 60 3 78 0 116 -21 93 -49 142 -156
116 -255 -14 -56 -59 -122 -82 -122 -18 0 -19 26 0 33 24 9 56 90 56 142 0
129 -111 216 -245 191 -43 -8 -113 -68 -132 -113 -29 -70 -2 -197 48 -224 17
-9 19 -6 19 24 0 21 -8 41 -20 52 -60 55 -32 185 40 185 72 0 104 -119 48
-177 -28 -29 -34 -63 -22 -111 6 -21 11 -23 73 -20 l66 3 3 52 c3 44 0 52 -16
58 -29 9 -45 56 -37 107 15 90 42 104 48 26 l3 -53 2 58 c2 50 5 57 22 57 17
0 20 -7 22 -57 l2 -58 3 53 c4 57 14 65 31 28 31 -70 22 -148 -20 -162 -19 -6
-20 -12 -16 -75 3 -39 8 -73 12 -76 13 -13 82 55 109 107 54 106 28 255 -56
326 -83 70 -209 86 -305 38z"/>
<path d="M806 485 c-28 -7 -55 -11 -61 -9 -14 6 -40 -23 -50 -55 -6 -21 -5
-23 16 -18 13 3 51 17 84 30 33 14 61 24 63 22 8 -8 -25 -48 -55 -66 -18 -12
-33 -29 -33 -38 0 -10 -14 -36 -31 -57 -40 -51 -17 -60 25 -9 l32 38 73 -42
c40 -22 77 -41 83 -41 25 0 -2 38 -47 67 -101 64 -101 56 -5 102 126 62 155
99 34 46 -63 -28 -73 -30 -56 -13 17 17 15 45 -4 52 -9 3 -16 6 -17 5 -1 0
-24 -6 -51 -14z"/>
<path d="M1057 458 c-31 -24 -77 -91 -87 -126 -20 -72 14 -104 68 -66 21 15
25 15 42 -1 18 -16 20 -16 47 5 20 16 28 18 31 8 11 -40 11 -40 46 -19 29 19
35 19 46 6 16 -19 64 -19 94 0 21 14 24 14 36 0 18 -22 67 -19 102 7 28 19 31
20 40 5 11 -21 32 -22 48 -2 26 31 29 13 5 -25 -14 -22 -25 -50 -25 -62 1 -19
12 -11 65 47 68 74 89 112 30 55 -43 -42 -45 -33 -4 26 37 55 29 77 -15 37
-58 -53 -76 -66 -83 -59 -4 3 9 22 27 41 23 24 31 38 24 45 -12 12 -60 -21
-68 -48 -6 -16 -64 -62 -80 -62 -4 0 2 12 13 26 23 30 28 82 8 90 -7 2 -40
-22 -73 -56 -62 -61 -104 -83 -65 -34 24 30 28 82 8 90 -7 2 -38 -20 -69 -51
-30 -30 -60 -55 -66 -55 -15 0 -16 22 -2 36 6 6 13 23 16 37 4 24 1 27 -22 27
-37 0 -86 -25 -124 -65 -34 -35 -63 -44 -75 -25 -3 6 14 36 38 68 59 76 74
137 24 100z m-7 -47 c0 -5 -9 -19 -20 -32 l-21 -24 16 33 c15 31 25 41 25 23z
m100 -96 c-32 -33 -60 -45 -60 -27 0 17 58 57 89 61 3 1 -10 -15 -29 -34z
m158 -11 c-8 -9 -22 -12 -32 -8 -16 6 -15 9 5 31 20 21 24 22 32 7 6 -11 5
-21 -5 -30z m130 0 c-8 -9 -22 -12 -32 -8 -16 6 -15 9 5 31 20 21 24 22 32 7
6 -11 5 -21 -5 -30z"/>
<path d="M724 128 c-4 -6 4 -21 21 -33 26 -21 26 -23 9 -34 -11 -6 -14 -11 -8
-11 6 0 17 6 23 14 10 12 7 18 -13 31 -31 20 -34 39 -6 32 11 -3 18 -1 14 4
-7 13 -31 11 -40 -3z"/>
<path d="M833 95 c0 -27 2 -38 4 -22 2 15 2 37 0 50 -2 12 -4 0 -4 -28z"/>
<path d="M901 94 c2 -34 3 -40 6 -19 3 16 9 33 14 36 6 3 3 11 -6 19 -13 11
-15 7 -14 -36z"/>
<path d="M961 111 c-1 -30 -3 -32 -18 -20 -13 11 -13 8 3 -16 l19 -29 3 27 c2
15 1 37 -1 50 -3 15 -5 11 -6 -12z"/>
<path d="M1042 128 c-14 -14 -16 -54 -4 -62 5 -3 6 8 4 24 -3 24 0 32 19 39
14 6 18 10 9 10 -9 1 -21 -4 -28 -11z"/>
<path d="M1160 95 c0 -43 1 -45 28 -44 23 2 24 2 5 6 -27 5 -31 30 -5 36 16 4
16 5 0 6 -26 2 -22 29 5 34 19 4 18 4 -5 6 -27 1 -28 -1 -28 -44z"/>
<path d="M1317 132 c6 -4 13 -25 16 -47 4 -40 4 -40 5 8 2 39 -1 47 -15 47
-12 0 -14 -3 -6 -8z"/>
<path d="M1400 123 c-12 -15 -12 -16 0 -5 25 21 39 13 43 -25 l4 -38 -1 40
c-1 45 -23 58 -46 28z"/>
<path d="M1514 125 c-3 -8 -4 -20 -1 -27 3 -7 6 -2 6 11 1 18 5 22 21 18 11
-3 18 -1 14 4 -8 14 -34 11 -40 -6z"/>
<path d="M1627 133 c-13 -12 -7 -60 8 -73 32 -26 63 38 33 68 -13 13 -31 16
-41 5z m38 -38 c0 -43 -29 -40 -33 3 -3 28 0 33 15 30 13 -2 18 -12 18 -33z"/>
<path d="M1561 94 c0 -11 3 -14 6 -6 3 7 2 16 -1 19 -3 4 -6 -2 -5 -13z"/>
<path d="M1076 64 c-11 -8 -16 -14 -10 -14 13 0 39 18 34 24 -3 2 -14 -2 -24
-10z"/>
<path d="M1540 60 c-9 -6 -10 -10 -3 -10 6 0 15 5 18 10 8 12 4 12 -15 0z"/>
<path d="M210 34 c0 -23 3 -24 65 -24 60 0 65 2 65 21 0 19 -4 21 -35 16 -19
-3 -48 -2 -65 3 -27 8 -30 7 -30 -16z"/>
</g>
</svg>
